# xmcd
#
# Track frame offsets: 
#        183
#        19385
#        30938
#        44033
#        58000
#        72033
#        86653
#        97373
#        106913
#        119878
#        134138
#        143495
#        154968
#        169463
#        180390
#        195470
#        208525
#        223978
#        240033
#        251663
#
# Disc length: 3479 seconds
#
# Revision: 4
# Processed by: cddbd v1.5.2PL0 Copyright (c) Steve Scherf et al.
# Submitted via: ExactAudioCopy v1.3
#
DISCID=2e0d9514
DTITLE=Various Artist - The Best Of Bobbie Gentry
DYEAR=1994
DGENRE=Country
TTITLE0=Bobbie Gentry - Ode To Billie Joe
TTITLE1=Bobbie Gentry with Glen Campbell - All I Have To Do Is Dream
TTITLE2=Bobbie Gentry - I'll Never Fall In Love Again
TTITLE3=Bobbie Gentry - Raindrops Keep Falling On My Head
TTITLE4=Bobbie Gentry - Mississippi Delta
TTITLE5=Bobbie Gentry with Glen Campbell - Little Green Apples
TTITLE6=Bobbie Gentry - Natural To Be Gone
TTITLE7=Bobbie Gentry - Son Of A Preacher Man
TTITLE8=Bobbie Gentry - Seasons Come, Seasons Go
TTITLE9=Bobbie Gentry with Glen Campbell - Gentle On My Mind
TTITLE10=Bobbie Gentry - Touch 'Em With Love
TTITLE11=Bobbie Gentry - Where's The Playground Johnny
TTITLE12=Bobbie Gentry with Glen Campbell - My Elusive Dreams
TTITLE13=Bobbie Gentry - Greyhound Goin' Somewhere
TTITLE14=Bobbie Gentry - You've Made Me So Very Happy
TTITLE15=Bobbie Gentry with Glen Campbell - Mornin' Glory
TTITLE16=Bobbie Gentry - I Wouldn't Be Surprised
TTITLE17=Bobbie Gentry - Ace Insurance Man
TTITLE18=Bobbie Gentry - Glory Hallelujah, How They'll Sing
TTITLE19=Bobbie Gentry with Glen Campbell - Let It Be Me
EXTD=
EXTT0=
EXTT1=
EXTT2=
EXTT3=
EXTT4=
EXTT5=
EXTT6=
EXTT7=
EXTT8=
EXTT9=
EXTT10=
EXTT11=
EXTT12=
EXTT13=
EXTT14=
EXTT15=
EXTT16=
EXTT17=
EXTT18=
EXTT19=
PLAYORDER=
